<svg width="60" height="52" viewBox="0 0 60 52" fill="none" xmlns="http://www.w3.org/2000/svg">
<path d="M21.4286 8.57143V4.28571H38.5714V8.57143H21.4286ZM60 30H37.5V35.3571C37.5 36.529 36.529 37.5 35.3571 37.5H24.6429C23.471 37.5 22.5 36.529 22.5 35.3571V30H0V46.0714C0 49.0179 2.41071 51.4286 5.35714 51.4286H54.6429C57.5893 51.4286 60 49.0179 60 46.0714V30ZM34.2857 30H25.7143V34.2857H34.2857V30ZM60 13.9286C60 10.9821 57.5893 8.57143 54.6429 8.57143H42.8571V3.21429C42.8571 1.43973 41.4174 -1.90735e-06 39.6429 -1.90735e-06H20.3571C18.5826 -1.90735e-06 17.1429 1.43973 17.1429 3.21429V8.57143H5.35714C2.41071 8.57143 0 10.9821 0 13.9286V26.7857H60V13.9286Z" fill="#E93A7D"/>
</svg>
