<svg width="51" height="51" viewBox="0 0 51 51" fill="none" xmlns="http://www.w3.org/2000/svg">
<path d="M25.279 27.4219C25.279 26.25 24.3081 25.279 23.1362 25.279H8.13619C6.96431 25.279 5.99333 26.25 5.99333 27.4219C5.99333 27.9911 6.22771 28.5268 6.62949 28.9286L11.4509 33.75L0.334848 44.8661C0.133955 45.067 2.61739e-05 45.3683 2.61739e-05 45.6362C2.61739e-05 45.904 0.133955 46.2054 0.334848 46.4063L4.15181 50.2232C4.3527 50.4241 4.65404 50.558 4.9219 50.558C5.18976 50.558 5.4911 50.4241 5.69199 50.2232L16.8081 39.1071L21.6295 43.9286C22.0313 44.3304 22.567 44.5647 23.1362 44.5647C24.3081 44.5647 25.279 43.5938 25.279 42.4219V27.4219ZM50.5581 4.92188C50.5581 4.65402 50.4241 4.35268 50.2232 4.15179L46.4063 0.334827C46.2054 0.133933 45.904 5.00679e-06 45.6362 5.00679e-06C45.3683 5.00679e-06 45.067 0.133933 44.8661 0.334827L33.75 11.4509L28.9286 6.62947C28.5268 6.22768 27.9911 5.99331 27.4219 5.99331C26.25 5.99331 25.279 6.96429 25.279 8.13616V23.1362C25.279 24.308 26.25 25.279 27.4219 25.279H42.4219C43.5938 25.279 44.5648 24.308 44.5648 23.1362C44.5648 22.567 44.3304 22.0313 43.9286 21.6295L39.1072 16.808L50.2232 5.69197C50.4241 5.49108 50.5581 5.18974 50.5581 4.92188Z" fill="#E93A7D"/>
</svg>
