<svg width="65" height="56" viewBox="0 0 65 56" fill="none" xmlns="http://www.w3.org/2000/svg">
<path d="M60 33.2143C60 33.7835 59.4978 34.2857 58.9286 34.2857H5.35714C4.78795 34.2857 4.28571 33.7835 4.28571 33.2143V5.35714C4.28571 4.78795 4.78795 4.28571 5.35714 4.28571H58.9286C59.4978 4.28571 60 4.78795 60 5.35714V33.2143ZM64.2857 5.35714C64.2857 2.41071 61.875 -1.90735e-06 58.9286 -1.90735e-06H5.35714C2.41071 -1.90735e-06 0 2.41071 0 5.35714V41.7857C0 44.7321 2.41071 47.1429 5.35714 47.1429H23.5714C23.5714 50.0558 21.4286 52.3326 21.4286 53.5714C21.4286 54.7433 22.3996 55.7143 23.5714 55.7143H40.7143C41.8862 55.7143 42.8571 54.7433 42.8571 53.5714C42.8571 52.3996 40.7143 49.9888 40.7143 47.1429H58.9286C61.875 47.1429 64.2857 44.7321 64.2857 41.7857V5.35714Z" fill="#E93A7D"/>
</svg>
